<svg height='100px' width='100px'  fill="#000000" xmlns:dc="http://purl.org/dc/elements/1.1/" xmlns:cc="http://creativecommons.org/ns#" xmlns:rdf="http://www.w3.org/1999/02/22-rdf-syntax-ns#" xmlns:svg="http://www.w3.org/2000/svg" xmlns="http://www.w3.org/2000/svg" xmlns:sodipodi="http://sodipodi.sourceforge.net/DTD/sodipodi-0.dtd" xmlns:inkscape="http://www.inkscape.org/namespaces/inkscape" version="1.1" x="0px" y="0px" viewBox="0 0 100 100"><g transform="translate(0,-952.36218)"><path style="color:#000000;enable-background:accumulate;" d="m 49.8125,961.36728 a 2.0000666,1.9999522 0 0 0 -1.125,0.46875 l -42,36.00001 a 2.0050032,2.0048886 0 1 0 2.625,3.03116 L 50,965.99228 90.6875,1000.8672 a 2.0050032,2.0048886 0 1 0 2.625,-3.03116 l -42,-36.00001 a 2.0000666,1.9999522 0 0 0 -1.5,-0.46875 z m 19.1875,0.0625 0,12.90625 8,6.875 0,-19.78125 -8,0 z m -19,7.9375 -32,26.99996 0,46.99996 64,0 0,-46.99996 -32,-26.99996 z m -14,33.99992 12,0 0,12 -12,0 0,-12 z m 16,0 12,0 0,12 -12,0 0,-12 z m -16,16 12,0 0,12 -12,0 0,-12 z m 16,0 12,0 0,12 -12,0 0,-12 z" fill="#000000" stroke="none" marker="none" visibility="visible" display="inline" overflow="visible"></path></g></svg>