<svg height='100px' width='100px'  fill="#000000" xmlns="http://www.w3.org/2000/svg" xmlns:xlink="http://www.w3.org/1999/xlink" version="1.1" x="0px" y="0px" viewBox="0 0 100 100" style="enable-background:new 0 0 100 100;" xml:space="preserve"><style type="text/css">
	.st0{display:none;}
</style><path class="st0" d="M73.9,56.7l-4.6,4.6h-7.6l-4.6,4.6h-6.8L38.2,53.6h-13l-8.2,8.2v7.6L12.5,74v13.6h62.2l12.8-12.8  V56.7H73.9z M37.8,56l10.8,10.8l-1.7,1.7L36.2,57.6L37.8,56z M26,55.6h9.4l-5.7,5.7h-9.4L26,55.6z M19,63.2h10.2v5.7H19V63.2z   M15.8,73.4l2.6-2.6h9.4l-2.6,2.6H15.8z M27.4,74l7.6-7.6l10.2,3.8l-7.6,7.6L27.4,74z M49,78h-8.8l10.2-10.2h4.9L49,74V78z   M61.2,73.4h-8.8l10.2-10.2h4.9l-6.2,6.2C61.2,69.4,61.2,73.4,61.2,73.4z M73.9,68.8h-9.4l10.2-10.2h9.4L73.9,68.8z"></path><path class="st0" d="M81.9,58.5c-0.6-0.3-1.2-0.5-1.9-0.8c-1.1-0.4-3.3-1.2-3.2-1.8c0.2-1-0.1-2-0.8-2.7  c-1.8-2.1-6.5-3.1-16-3.2c-1.6,0-3.3,0-4.9,0c-2.9,0.1-6.1,0.4-9.6,0.8c-12.7,1.7-28.2,7.6-32.1,16.6c-1.8,4-1,8.1,2.2,11.6  C24.9,89.2,42,89.2,50.3,89.2c7.3,0,24.9-2.3,32.7-9.4c2.9-2.6,4.3-5.6,4.3-8.9v-0.1C87.2,65.1,84.4,59.8,81.9,58.5z M78.5,74.3  c-6,6.1-21.4,8.6-28.3,8.6c-7.3,0-22.5,0-29.8-9c-1.7-2.1-2.1-4.2-1.2-6.5C21.8,61,32.2,56,41.8,53.8c0.9,3.5,4.6,15.4,12.8,15.5h0  c0.5,0,1-0.4,1-0.9c0-0.5-0.4-1-1-1c-6.7-0.1-10-10.7-10.9-14c0.9-0.2,1.9-0.4,2.8-0.5c3.6-0.5,6.9-0.8,9.9-0.9h0l1.3,0  c0.5,0,1,0,1.5,0c8.6,0.1,11.1,1.5,11.6,2.6c0.2,0.3,0.1,1,0.1,1.5c0,0.8-0.1,1.6,0.3,2.3c-0.6,2.6-2.7,8.3-5.9,8.6  c-0.5,0.1-0.9,0.5-0.9,1.1c0,0.5,0.5,0.9,1,0.9c0,0,0.1,0,0.1,0c4.1-0.3,6.3-5.8,7.3-8.6c0.5,0.3,1.1,0.6,1.7,0.8  c1.4,0.3,2.5,0.8,3.4,1.3c1.1,0.7,1.9,1.5,2.4,2.6c0.5,1.1,0.8,2.3,0.8,3.8C81.1,70.8,80.2,72.6,78.5,74.3z"></path><path class="st0" d="M76.8,68.8c-2.9,0-5.4-1.3-7.4-3.6s-3.3-5.7-3.9-10c0-0.2-0.1-0.9-0.1-1c-0.9-4.9-4.9-8.3-9.8-8.3  c-2.4,0-4.7,0.8-6.6,2.4l-12.7,13l-0.7,0.8c-0.9,1.2-1.5,2.6-1.8,4.2c0,0-0.3,1.9-0.3,2.3h-8.4L12.6,81.5v5.9h62.2l12.7-12.7v-5.9  H76.8z M50.5,49.8c1.5-1.2,3.3-1.9,5.3-1.9c3.9,0,7.1,2.8,7.8,6.7l0.1,0.8c0,0,0,0,0,0c1.5,10.5,7.1,14.7,12.2,15.2  c0.3,0,0.7,0.1,1,0.1h7.3L73.9,80.9H65c-5.8,0-10-5.1-11.2-13.5c0,0-0.1-0.9-0.1-1c-0.9-4.9-4.9-8.3-9.8-8.3c-0.6,0-1.1,0-1.7,0.1  L50.5,49.8z M26.1,70.7h7.1c-1.7,6.5-5.5,10.2-10.6,10.2h-6.8L26.1,70.7z"></path><path class="st0" d="M78.1,71.2c-2.5,0-4.6-1.1-6.2-3c-1.6-2-2.8-4.8-3.3-8.4c0-0.2-0.1-0.8-0.1-0.8  c-0.8-4.3-4.3-7.2-8.5-7.2c-2.1,0-4.1,0.7-5.7,2.1L43.2,65.3c-1,1.1-1.6,2.5-1.9,4.1c0,0-0.2,1.6-0.3,1.9h-0.2  c-7.7,0-11.9-4.1-12-25.4v-1.9h-3.9V33.5h-1.4l-11,11v43h63.9l11-11v-5.3H78.1z M15.1,52.3l-0.7,0.7v-7.7l0.7-0.7V52.3z M22.3,37.4  l0.7-0.7v7.7l-0.7,0.7V37.4z M19.7,40l0.7-0.7v7.7l-0.7,0.7V40z M17.1,42.6l0.7-0.7v7.7l-0.7,0.7V42.6z M15.8,54.3l8.5-8.5h1.2  L17,54.3H15.8z M31.7,81.6h-1.3c-7.7,0-11.9-4.1-12.1-25.4v-0.6l8.5-8.5c0.3,19,4,25.9,13.7,26C39.1,78.5,35.9,81.6,31.7,81.6z"></path><path class="st0" d="M87.5,63l-0.3,1.9l-5.3-0.8v10.8h-1.9V63.8l-21.8-3.3v14.4h-1.9V60.3H43.6v14.6h-1.9V60.1  l-21.8-3.4v18.1H18V56.6h-5.5v-1.9c0,0,6.5,0,6.6,0l23.6,3.6c0,0,14.6,0,14.6,0L87.5,63z"></path><polygon class="st0" points="87.5,58.3 87.5,60.2 72.9,60.2 72.9,74.9 70.9,74.9 70.9,60.2 28.9,60.2 28.9,74.9   26.9,74.9 26.9,60.2 12.3,60.2 12.3,58.3 "></polygon><path class="st0" d="M25.3,61.1L12.5,73.8v13.5h62.3l0.6-0.6l12.2-12.2V61.1H25.3z M74,73.3H15.8L26.1,63h58.1L74,73.3z"></path><path class="st0" d="M65.8,59.4H44.7l-21.3,5.3L12.5,75.6v11.8h64l11-11V64.9L65.8,59.4z M16.7,74.2l7.8-7.8l17.2-4.3  l-7.8,7.8L16.7,74.2z M36.7,69.9l8.5-8.5h18.1l-8.5,8.5H36.7z M75.8,75l-18.7-4.7l8.8-8.8l18.7,4.7L75.8,75z"></path><path class="st0" d="M75.4,68.7v-6.1H63.3v-6.1H51.1v-6.1H25.4L12.7,63.2v24.2h62.1l12.7-12.7v-5.9H75.4z M26.2,52.4  h21.6L37.6,62.6H16L26.2,52.4z M39,64l10.2-10.2v3.3L39,67.3V64z M40.3,68.7l10.2-10.2h9.4L49.7,68.7H40.3z M51.1,70.1l10.2-10.2  v3.3L51.1,73.4V70.1z M52.5,74.8l10.2-10.2h9.4L61.9,74.8H52.5z M63.3,76.1l10.2-10.2v3.3L63.3,79.5V76.1z M74,80.8h-9.4l10.2-10.2  h9.4L74,80.8z"></path><path class="st0" d="M80,68.8v-6.7l5.7,2.5l0.8-1.8L38,41.4h-7.3v2h6.1v7.2H25.2L12.5,63.3v24.2h62.3l12.8-12.8v-5.9  H80z M78,61.2v7.5h-2.6v-6.1H63.2v-6.1H51v-6.1H38.8v-6.7L78,61.2z M15.8,62.7L26,52.5h10.8v3h2v-3h8.9L37.4,62.7H15.8z M38.8,64.1  l10.2-10.2v3.3L38.8,67.4V64.1z M40.2,68.8l10.2-10.2h9.4L49.6,68.8H40.2z M51,70.2l10.2-10.2v3.3L51,73.5V70.2z M52.4,74.9  l10.2-10.2h9.4L61.8,74.9H52.4z M63.2,76.3L73.4,66v3.3L63.2,79.6V76.3z M74,81h-9.4l10.2-10.2H78v3h2v-3h4.3L74,81z"></path><path class="st0" d="M66.6,61.5H49.5L25,73.8L12.5,86.3v1.4h61.8l13.2-13.2L66.6,61.5z M18.4,83.1l7.8-7.8L44.8,66  l-7.8,7.8L18.4,83.1z M40,73.6l10.2-10.2H64L53.9,73.6H40z M73.8,85.4l-18-11l10.7-10.7l17.9,11L73.8,85.4z"></path><path class="st0" d="M79.4,69.3v-2.1l2.4,1.5l1-1.7L59.2,52.5h-17L12.5,68.1l0.9,1.7l2.4-1.3v14.6l-3,3v1.4h61.4  l13.2-13.2L79.4,69.3z M59.9,63.5H64l-4.2,4.2V63.5z M43.4,54.5h14.6v7h-8.3l-6.3,3.1V54.5z M43.4,66.8l1.6-0.8l-1.6,1.6V66.8z   M17.8,67.5l23.6-12.4v10.5l-16.1,8l-7.5,7.5V67.5z M18.8,82.9l7.6-7.6l14.9-7.5v1.8l-4.1,4.1L18.8,82.9z M40.2,73.5l10-10h7.6v6.1  L54,73.5H40.2z M77.4,81.6l-3.7,3.7L56,74.3l10.6-10.6l10.9,6.7V81.6z M77.4,68.1l-10.7-6.6h-6.8v-6.3L77.4,66V68.1z M79.4,71.6l5,3  l-5,5V71.6z"></path><path class="st0" d="M69.7,68.1c-2.5-0.6-4-1.6-4.8-3c-0.3-0.5-0.6-1.1-1-1.6c-0.4-0.5-0.8-0.9-1.3-1.3  c-1-0.8-2.1-1.4-3.3-1.8c-2-0.6-4.4-0.6-6.4,0c-1,0.3-2,0.8-2.8,1.5c-0.2,0.1-0.6,0.5-0.7,0.6l-5.2,5.2c-0.5,0.2-1.1,0.4-1.7,0.5  c-2.7,0.7-5.5,0.7-7.7,0.7h-9.5L12.5,81.6v5.9h62.2l12.7-12.7v-5.9C87.5,68.8,72.4,68.7,69.7,68.1z M37.4,74.3c0,0-0.9,0.9-1.3,1.3  c-0.5,0.6-0.8,1.1-1,1.6c-0.8,1.4-2.3,2.4-4.8,3c-2.7,0.7-5.5,0.7-7.7,0.7h-6.8l10.2-10.2c0,0,10.2,0,10.5,0c1.7,0,2.9-0.1,4.9-0.5  L37.4,74.3z M73.9,81h-8.7c-2.1,0-5-0.1-7.7-0.7c-2.5-0.6-4-1.6-4.8-3c-0.3-0.5-0.6-1.1-1-1.6c-0.4-0.5-0.8-0.9-1.3-1.3  c-1-0.8-2.1-1.4-3.3-1.8c-1-0.3-2.1-0.5-3.2-0.5c0,0,0,0,0,0c-0.5,0-1,0-1.5,0.1c0,0,8-8.1,8.3-8.3l0.2-0.2c0.8-0.6,1.7-1.1,2.6-1.5  c1.6-0.5,3.6-0.5,5.2,0c1,0.3,1.9,0.8,2.6,1.5c0.4,0.3,0.7,0.7,1.1,1.1c0.3,0.4,0.5,0.8,0.8,1.3c1.4,2.6,4.1,3.5,6,3.9  c2.5,0.6,5.1,0.8,7.2,0.8c0.3,0,7.8,0,7.8,0L73.9,81z"></path><path class="st0" d="M83.6,68.8c-12.3,0-24.8-10.5-24.9-30.6l0,0v-1.4h-4.4L41.5,49.5v0.8l0,0c0,6.5-1.4,12-3.6,16.4  l-0.3,0.2c-2.8,1.3-5.3,1.8-8.8,1.8h-3.4L12.5,81.5v5.9h62.3l12.8-12.8v-5.9H83.6z M26.1,70.7h2.6c2.9,0,5.3-0.4,7.6-1.2  C31.5,77.1,24,81,16.5,81h-0.7L26.1,70.7z M74,81h-2.6c-12.3,0-24.8-10.5-24.9-30.6l10.3-10.3c0.9,20.2,13.9,30.7,26.8,30.7h0.7  L74,81z"></path><path class="st0" d="M51.8,65.5c-15.1,0-22.7-12.6-22.7-37.3V12.6h-1.4L12.6,27.8v59.7h59.7l15.2-15.2v-6.8  L51.8,65.5z M71.5,80H37.2c-15.1,0-22.7-12.6-22.7-37.3V28.6l12.6-12.6c0,0,0,12.9,0,13.2c0.2,24.9,8.2,37.7,23.7,38.3l33.3,0  L71.5,80z"></path><path class="st0" d="M51.3,71.1c-5.5,0-7-10.7-8.1-18.5L43,51c-0.7-4.2-4.3-7.2-8.6-7.2H23.5l-11,11v32.7h64l11-11  v-5.3H51.3z M75.7,81.6H40.9c-5.3,0-6.6-10.2-7.6-17.6l-0.3-2.5c-0.7-3.8-4-6.8-8-7.2c-0.3,0-0.6-0.1-1-0.1h-8.1l8.5-8.5h10.1  c3.3,0,6.1,2.4,6.6,5.6l0.2,1.5c1.2,8.5,2.8,20.2,10,20.2h32.9L75.7,81.6z"></path><path d="M86.1,24.7L73.4,37.4v3l-9.1,9.1l0,0.8c0,3.5-0.6,6.8-1.8,9.8c-2,0.6-4.1,1-6.4,1c-13.9,0-20.2-11.5-20.3-23l0,0v-1.4h-9.1  V24.7h-1.4L12.5,37.4v50.1h62.3l12.7-12.7V24.7H86.1z M23.6,29.1l1.1-1.1v9.4l-1.1,1.1V29.1z M20.5,32.1l1.1-1.1v9.4l-1.1,1.1V32.1z   M17.5,35.2l1.1-1.1v9.4l-1.1,1.1V35.2z M15.5,46.6l-1.1,1.1v-9.4l1.1-1.1V46.6z M15.8,49L26,38.8h6.4L22.2,49H15.8z M43.9,73.4  c-13.9,0-20.2-11.5-20.3-23l10.3-10.3c0.9,13.7,9.7,23.1,22.2,23.1c0.3,0,4-0.3,5.4-0.6C58,69.5,51.7,73.4,43.9,73.4z M73.4,49h-5.8  l5.8-5.8V49z M81.4,32.1l1.1-1.1v5.8h-1.1V32.1z M81.4,38.8h1.1v1.7l-1.1,1.1V38.8z M78.3,35.2l1.1-1.1v2.8h-1.1V35.2z M78.3,38.8  h1.1v4.7l-1.1,1.1V38.8z M75.3,38.2l1.1-1.1v0.3l-1.1,1.1V38.2z M75.3,41.3l1.1-1.1v6.4l-1.1,1.1V41.3z M85.5,36.8h-1.1v-7.8  l1.1-1.1V36.8z"></path></svg>